<?xml version="1.0" encoding="UTF-8"?>
<svg id="Camada_2" data-name="Camada 2" xmlns="http://www.w3.org/2000/svg" viewBox="0 0 226.77 226.77">
  <defs>
    <style>
      .cls-1 {
        fill: #1d1d1b;
      }

      .cls-2 {
        fill: #ffcc03;
      }
    </style>
  </defs>
  <g id="Camada_1-2" data-name="Camada 1">
    <g>
      <path class="cls-2" d="M0,181.38s0,45.39,45.39,45.39h135.99s45.39,0,45.39-45.39V45.39S226.77,0,181.38,0H45.39S0,0,0,45.39v135.99Z"/>
      <path class="cls-1" d="M8.5,178.55s0,39.72,39.72,39.72h130.32s39.72,0,39.72-39.72V48.22s0-39.72-39.72-39.72H48.22s-39.72,0-39.72,39.72v130.33Z"/>
      <path class="cls-2" d="M17.01,151.18v24.53s0,34.05,34.05,34.05h124.66s34.05,0,34.05-34.05v-24.53H17.01Z"/>
      <path class="cls-2" d="M209.76,142.68V51.06s0-34.05-34.05-34.05H51.06s-34.05,0-34.05,34.05v91.62h192.76Z"/>
      <path class="cls-1" d="M63.81,128.79c-.45,0-.67-.22-.67-.67V39.68c0-.36.11-.56.34-.61.22-.05.38.07.47.34l18.71,42.8c.09.27.13.54.13.81v45.09c0,.45-.22.67-.67.67h-18.31Z"/>
      <path class="cls-1" d="M106.92,128.79c-.36,0-.63-.18-.81-.54l-40.38-92.88c-.18-.54-.05-.81.4-.81h20.19c.36,0,.63.18.81.54l26.11,60.04h1.35l23.69-55.59c.36-.45.63-.4.81.14v43.21c0,.27-.05.54-.13.81l-18.31,44.56c-.18.36-.45.54-.81.54h-12.92Z"/>
      <rect class="cls-1" x="142.64" y="34.57" width="21" height="94.22" rx=".67" ry=".67"/>
      <g>
        <polygon class="cls-1" points="57.25 167.87 63.63 167.87 63.63 164.81 48.09 164.81 48.09 167.87 54.47 167.87 54.47 195.8 57.25 195.8 57.25 167.87"/>
        <g>
          <polyline class="cls-1" points="104.11 173.34 102.04 164.81 99.16 164.81 106.84 195.74 108.34 195.74 116.02 164.81 113.33 164.81 108.42 185.53 107.72 190.21 107.65 190.21 106.97 185.62 104.76 176.16"/>
          <polyline class="cls-1" points="118.28 173.34 116.21 164.81 113.33 164.81 121.02 195.74 122.51 195.74 130.2 164.81 127.5 164.81 122.6 185.53 121.89 190.21 121.82 190.21 121.15 185.62 118.93 176.16"/>
        </g>
        <polygon class="cls-1" points="141.06 195.8 152.77 195.8 152.77 192.75 143.84 192.75 143.84 181.41 151.88 181.41 151.88 178.36 143.84 178.36 143.84 167.87 152.59 167.87 152.59 164.81 141.06 164.81 141.06 195.8"/>
        <g>
          <path class="cls-1" d="M167.11,196.13v-31.2s-.06,0-.09,0c-.98.1-1.87.27-2.69.51v30.68h2.78Z"/>
          <path class="cls-1" d="M173.56,183.78l-1.41-1.64c1.41-.5,2.54-1.49,3.39-2.97.85-1.47,1.28-3.44,1.28-5.89,0-1.62-.19-2.97-.57-4.05-.38-1.08-.9-1.95-1.54-2.61-.64-.66-1.4-1.14-2.26-1.42-.81-.26-1.68-.38-2.58-.4v3.03c1.32,0,2.33.53,3,1.59.68,1.06,1.02,2.41,1.02,4.03,0,2.12-.41,3.71-1.22,4.74-.7.89-1.67,1.32-2.81,1.44v2.98h.03s5.56,13.51,5.56,13.51h3.23l-5.12-12.35Z"/>
        </g>
        <g>
          <path class="cls-1" d="M77.08,188.45v-16.15c0-2.52.99-4.11,3.03-4.37v-3.12c-4.27.25-6.39,3.19-6.39,7.66v15.8c0,4.42,2.12,7.41,6.39,7.66v-3.11c-2.04-.25-3.03-1.81-3.03-4.37Z"/>
          <path class="cls-1" d="M81.34,164.81v3.12c2.04.27,2.98,1.86,2.98,4.36v16.15c0,2.54-.94,4.1-2.98,4.37v3.12c4.28-.27,6.39-3.25,6.39-7.66v-15.8c0-4.45-2.11-7.39-6.39-7.66Z"/>
        </g>
      </g>
    </g>
  </g>
</svg>