<?xml version="1.0" encoding="UTF-8"?>
<svg id="Camada_2" data-name="Camada 2" xmlns="http://www.w3.org/2000/svg" viewBox="0 0 1358.49 1358.49">
  <defs>
    <style>
      .cls-1 {
        fill: #010101;
      }
    </style>
  </defs>
  <g id="Camada_1-2" data-name="Camada 1">
    <g>
      <path class="cls-1" d="M1101.28,0H257.26S0,0,0,257.2v844.08s0,257.2,257.26,257.2h844.02s257.2,0,257.2-257.2V257.2S1358.49,0,1101.28,0ZM1303.41,1082.93c0,220.48-220.48,220.48-220.48,220.48H275.56c-220.48,0-220.48-220.48-220.48-220.48v-158.89h1248.33v158.89ZM1303.41,868.96H55.08V275.56c0-220.48,220.48-220.48,220.48-220.48h807.37c220.48,0,220.48,220.48,220.48,220.48v593.4Z"/>
      <path class="cls-1" d="M359.04,200.15c-.6-1.73-1.61-2.45-3.05-2.15-1.5.3-2.21,1.61-2.21,3.89v572.77c0,2.93,1.44,4.37,4.37,4.37h118.58c2.87,0,4.37-1.44,4.37-4.37v-292.07c0-1.73-.3-3.47-.9-5.2l-121.16-277.23Z"/>
      <path class="cls-1" d="M840.55,201.05l-153.45,360h-8.73l-169.12-388.76c-1.2-2.33-2.93-3.53-5.26-3.53h-130.72c-2.93,0-3.83,1.79-2.63,5.26l261.51,601.53c1.2,2.33,2.93,3.47,5.26,3.47h83.66c2.33,0,4.07-1.14,5.26-3.47l118.52-288.6c.6-1.73.9-3.47.9-5.2V201.89c-1.2-3.47-2.93-3.77-5.2-.84Z"/>
      <path class="cls-1" d="M1000.34,168.76h-127.26c-2.93,0-4.37,1.5-4.37,4.37v601.53c0,2.93,1.44,4.37,4.37,4.37h127.26c2.87,0,4.37-1.44,4.37-4.37V173.12c0-2.87-1.5-4.37-4.37-4.37Z"/>
      <polygon class="cls-1" points="297.69 1213.05 315.69 1213.05 315.69 1032.1 357.01 1032.1 357.01 1012.3 256.36 1012.3 256.36 1032.1 297.69 1032.1 297.69 1213.05"/>
      <polygon class="cls-1" points="646.56 1212.57 687.65 1047.34 728.67 1212.57 738.36 1212.57 788.17 1012.3 770.71 1012.3 738.95 1146.49 734.35 1176.81 733.87 1176.81 729.51 1147.03 715.21 1085.8 710.97 1067.5 697.57 1012.3 696.32 1012.3 678.91 1012.3 678.85 1012.3 647.1 1146.49 642.56 1176.81 642.08 1176.81 637.71 1147.03 623.36 1085.8 619.17 1067.5 605.72 1012.3 587.12 1012.3 636.87 1212.57 646.56 1212.57"/>
      <polygon class="cls-1" points="934.32 1193.2 876.44 1193.2 876.44 1119.82 928.58 1119.82 928.58 1100.03 876.44 1100.03 876.44 1032.1 933.13 1032.1 933.13 1012.3 858.44 1012.3 858.44 1213.05 934.32 1213.05 934.32 1193.2"/>
      <path class="cls-1" d="M1027.25,1013.08c-.24.06-.42.06-.66.06-6.34.66-12.14,1.79-17.4,3.29v198.72h18l.06-202.07Z"/>
      <path class="cls-1" d="M1081.25,1215.14h20.87l-33.13-80.01-9.15-10.58c9.15-3.23,16.45-9.69,22.01-19.2,5.5-9.57,8.25-22.31,8.25-38.15,0-10.52-1.2-19.26-3.71-26.25-2.45-6.94-5.8-12.62-9.99-16.92-4.13-4.31-9.03-7.36-14.59-9.15-5.32-1.73-10.88-2.45-16.74-2.57v19.61c8.61.06,15.07,3.47,19.49,10.35,4.37,6.88,6.58,15.55,6.58,26.07,0,13.75-2.63,23.98-7.89,30.68-4.54,5.8-10.82,8.55-18.24,9.33v19.32l.18.06,36.06,87.43Z"/>
      <path class="cls-1" d="M463.69,1213.89v-20.21c-13.16-1.61-19.55-11.72-19.55-28.29v-104.59c0-16.33,6.4-26.67,19.55-28.35v-20.15c-27.63,1.61-41.38,20.69-41.38,49.57v102.38c0,28.64,13.75,47.96,41.38,49.63Z"/>
      <path class="cls-1" d="M513.09,1164.25v-102.38c0-28.82-13.63-47.84-41.38-49.57v20.21c13.22,1.73,19.32,12.08,19.32,28.29v104.59c0,16.45-6.1,26.55-19.32,28.29v20.15c27.75-1.73,41.38-20.99,41.38-49.57Z"/>
    </g>
  </g>
</svg>